<?xml version="1.0" standalone="no"?>
<svg xmlns:xlink="http://www.w3.org/1999/xlink" id="wave" style="transform:rotate(0deg); transition: 0.3s" viewBox="0 0 1440 490" version="1.1" xmlns="http://www.w3.org/2000/svg"><defs><linearGradient id="sw-gradient-0" x1="0" x2="0" y1="1" y2="0"><stop stop-color="rgba(32, 38, 57, 1)" offset="0%"/><stop stop-color="rgba(32, 38, 57, 1)" offset="100%"/></linearGradient></defs><path style="transform:translate(0, 0px); opacity:1" fill="url(#sw-gradient-0)" d="M0,196L48,163.3C96,131,192,65,288,49C384,33,480,65,576,122.5C672,180,768,261,864,253.2C960,245,1056,147,1152,163.3C1248,180,1344,310,1440,326.7C1536,343,1632,245,1728,212.3C1824,180,1920,212,2016,261.3C2112,310,2208,376,2304,383.8C2400,392,2496,343,2592,277.7C2688,212,2784,131,2880,138.8C2976,147,3072,245,3168,253.2C3264,261,3360,180,3456,196C3552,212,3648,327,3744,375.7C3840,425,3936,408,4032,408.3C4128,408,4224,425,4320,408.3C4416,392,4512,343,4608,326.7C4704,310,4800,327,4896,302.2C4992,278,5088,212,5184,187.8C5280,163,5376,180,5472,155.2C5568,131,5664,65,5760,73.5C5856,82,5952,163,6048,236.8C6144,310,6240,376,6336,359.3C6432,343,6528,245,6624,236.8C6720,229,6816,310,6864,351.2L6912,392L6912,490L6864,490C6816,490,6720,490,6624,490C6528,490,6432,490,6336,490C6240,490,6144,490,6048,490C5952,490,5856,490,5760,490C5664,490,5568,490,5472,490C5376,490,5280,490,5184,490C5088,490,4992,490,4896,490C4800,490,4704,490,4608,490C4512,490,4416,490,4320,490C4224,490,4128,490,4032,490C3936,490,3840,490,3744,490C3648,490,3552,490,3456,490C3360,490,3264,490,3168,490C3072,490,2976,490,2880,490C2784,490,2688,490,2592,490C2496,490,2400,490,2304,490C2208,490,2112,490,2016,490C1920,490,1824,490,1728,490C1632,490,1536,490,1440,490C1344,490,1248,490,1152,490C1056,490,960,490,864,490C768,490,672,490,576,490C480,490,384,490,288,490C192,490,96,490,48,490L0,490Z"/></svg>